<svg id="图层_1" data-name="图层 1" xmlns="http://www.w3.org/2000/svg" xmlns:xlink="http://www.w3.org/1999/xlink" viewBox="0 0 1046.32 312.5"><defs><style>.cls-1{fill:#9e9e9f;}.cls-2{fill:url(#linear-gradient);}</style><linearGradient id="linear-gradient" y1="156.25" x2="312.5" y2="156.25" gradientUnits="userSpaceOnUse"><stop offset="0" stop-color="#1a97cb"/><stop offset="0.3" stop-color="#59b5e6"/><stop offset="0.31" stop-color="#5bb6e1"/><stop offset="0.38" stop-color="#67babf"/><stop offset="0.46" stop-color="#71bea4"/><stop offset="0.54" stop-color="#78c091"/><stop offset="0.62" stop-color="#7cc286"/><stop offset="0.7" stop-color="#7dc282"/><stop offset="1" stop-color="#c9db58"/></linearGradient></defs><title>原版logo</title><path class="cls-1" d="M585.36,539.43l48.82-84.15h13.9L697,539.43H685.95l-11-18.54H608l-10.74,18.54ZM613.11,512h56.74l-28.6-48.37Z" transform="translate(-194.73 -341.5)"/><path class="cls-1" d="M706.63,466.53V455.28h9.5v11.25Zm0,72.9V479.92h9.5v59.51Z" transform="translate(-194.73 -341.5)"/><path class="cls-1" d="M735.11,539.43V480.54h9.15v8.76a16.41,16.41,0,0,1,8.2-7.88q5.32-2.29,16.56-2.28,15.1,0,21.19,4.48t6.1,15.29v7.85h-8.76v-5.54q0-8-4.15-10.62t-16.7-2.66q-11.53,0-16.75,3.45t-5.23,11.13v36.91Z" transform="translate(-194.73 -341.5)"/><path class="cls-1" d="M820.78,539.43H810.33V455.28h58.49q20.06,0,26.5,4.3t6.44,15.71v11q0,11.42-6.41,15.65t-26.53,4.24h-48Zm0-42.73h51q11.35,0,15.05-2.71t3.7-11.41v-4q0-8.71-3.7-11.42t-15.05-2.71h-51Z" transform="translate(-194.73 -341.5)"/><path class="cls-1" d="M916.46,539.43V480.54h9.15v8.76a16.4,16.4,0,0,1,8.19-7.88q5.32-2.29,16.56-2.28,15.09,0,21.19,4.48t6.1,15.29v7.85H968.9v-5.54c0-5.31-1.4-8.85-4.15-10.62s-8.34-2.66-16.7-2.66q-11.53,0-16.76,3.45t-5.23,11.13v36.91Z" transform="translate(-194.73 -341.5)"/><path class="cls-1" d="M1017.38,540.22q-15.37,0-21.93-6t-6.55-20.26v-9.33q0-13.67,6.64-19.58t21.84-5.9h20.46q15.19,0,21.84,5.9t6.64,19.58v9.33q0,14.24-6.55,20.26t-21.92,6Zm2.43-8.75h15.48q13,0,17.26-3.79t4.26-14.75v-7.07q0-10.62-4.29-14.32t-17.23-3.7h-15.48q-12.89,0-17.16,3.7t-4.27,14.32v7.07q0,11,4.24,14.75T1019.82,531.46Z" transform="translate(-194.73 -341.5)"/><path class="cls-1" d="M1143.29,500.55c-.09-5-1.28-8.34-3.62-10.09s-7.53-2.63-15.6-2.63h-13.9q-10.46,0-14.89,3.14t-4.43,10.25V515q0,9.38,4.06,12.91t15.48,3.54h14.13q11.19,0,15.32-3t4.13-10.77V517h8.93v1.58q0,11.36-6.25,16.5t-19.91,5.14h-17q-14.41,0-21.39-5.65t-7-17.35v-15q0-11.75,7-17.4t21.41-5.65h14.13q15.21,0,21.7,4.63T1152,499v1.53Z" transform="translate(-194.73 -341.5)"/><path class="cls-1" d="M1211.1,479.13q16.79,0,23.37,6.21t6.58,21.82q0,1.86,0,2.82c0,.64-.05,1.23-.09,1.75l-65,.06V515q0,9.44,4.58,13.17t15.94,3.72h15.48q9.89,0,14.6-2.46a8,8,0,0,0,4.72-7.6v-.62h9.83v1.52q0,8.59-6.87,13t-20.09,4.44h-17.8q-16,0-23-5.93t-6.93-19.72v-9.49q0-14,6.87-20t23-6Zm-35.21,24.07h55.22v-1.42q0-8-4.08-11t-16.16-3h-14.75q-11.24,0-15.74,3.48T1175.89,503.2Z" transform="translate(-194.73 -341.5)"/><polygon class="cls-2" points="270.98 72.38 270.98 230.9 243.71 258.08 243.71 45.11 205.61 7.01 205.61 296.21 195.68 306.19 182.04 306.19 182.04 0 148.03 0 148.03 306.61 128.84 306.55 128.84 0 113.9 0 99.88 14.02 99.88 289.24 85.89 275.03 85.89 28.01 59.77 54.13 59.77 249.24 48.54 237.99 48.54 65.36 26.64 87.26 26.64 216.17 18.63 208.1 18.63 95.28 0 113.9 0 198.61 6.41 205.01 6.41 115.62 12.29 110 12.29 210.89 32.93 231.54 32.93 89.85 42.25 80.76 42.25 240.86 66.1 264.7 66.1 56.43 79.22 43.4 79.22 277.83 105.84 304.45 105.84 17.18 117.13 6 122.17 6 122.17 312.5 154.02 312.5 154.02 6.09 175.74 6.09 175.74 312.5 198.6 312.5 211.92 299.19 211.92 22.84 237.34 48.13 237.34 273.76 277.34 233.76 277.34 88.95 306.47 118.02 306.47 204.64 312.5 198.61 312.5 113.9 270.98 72.38"/></svg>